# xmcd CD database file
#
# Track frame offsets:
#	150
#	13647
#	30864
#	47964
#	61947
#	78154
#	95628
#	109456
#	131793
#	147308
#	165824
#	178448
#	193120
#	208893
#	222574
#
# Disc length: 3142 seconds
#
# Revision: 0
# Processed by: cddbd v1.5.2PL0 Copyright (c) Steve Scherf et al.
# Submitted via: CDex 1.70beta2
#
DISCID=de0c440f
DTITLE=SANDRA CLÉIA and LEONARDA - SANDRA CLÉIA and LEONARDA
DYEAR=2006
DGENRE=Country
TTITLE0=FESTA DE PEÃO
TTITLE1=CHORAM AS ROSAS
TTITLE2=A LUA ME TRAIU
TTITLE3=NO DIA EM QUE EU SAÍ DE CASA
TTITLE4=POR QUE CHORAS?
TTITLE5=DESATINO
TTITLE6=APAZIGUAR
TTITLE7=A VOLTA
TTITLE8=ENTRA NA ARENA
TTITLE9=HOMEM CARENTE
TTITLE10=TOCA AQUELA
TTITLE11=CANARINHO PRISIONEIRO
TTITLE12=FOTO 3/4
TTITLE13=GOSTO DE MULHER, MEU AMIGO DE PINGA
TTITLE14=SE MANCOL
EXTD=YEAR: 2006
EXTT0=
EXTT1=
EXTT2=
EXTT3=
EXTT4=
EXTT5=
EXTT6=
EXTT7=
EXTT8=
EXTT9=
EXTT10=
EXTT11=
EXTT12=
EXTT13=
EXTT14=
PLAYORDER=
